<svg version="1.0" xmlns="http://www.w3.org/2000/svg" width="360" height="360" viewBox="0 0 270 270"><path d="M57.6 86.7C56.2 89.4 16 199.3 16 200.4c0 .4 6.4.6 14.3.6h14.2l4-12.8 4-12.7 21.1-.3 21-.2 4 12.7 4 12.8 14.6.3 14.7.3-1.8-5.3c-9.2-26.1-38.2-106.9-39.2-109.1L89.7 84H59.1l-1.5 2.7zm24.8 49.2c3.1 9.6 5.6 17.6 5.6 17.8 0 .2-6.5.3-14.5.3s-14.5-.3-14.5-.6 2.9-9.7 6.4-20.7c3.5-11.1 6.8-22 7.2-24.2l.7-4 1.8 7c1 3.8 4.3 14.8 7.3 24.4zm63.6 6.5V201h26.3c35.1 0 42-1.5 52.7-11.6 6.7-6.3 9.4-12.8 9.4-22.9 0-6.2-.5-8.9-2.1-12.1-4-7.5-10.6-12.6-20.1-15.5l-4.3-1.2 5.2-2.5c5.8-2.8 11.9-8.4 14.5-13.3 2.2-4.4 2.9-13.7 1.4-18.5-2.8-8.8-8.6-13.7-19.8-16.6-6.5-1.7-11.9-2.1-35.4-2.5l-27.8-.5v58.6zm46.2-38.3c6.2 1.7 9 4.8 9.5 10.5.6 6.3-1.3 10.4-6.4 13.5-3 1.9-5.5 2.4-13 2.7l-9.3.4V103h7.8c4.2 0 9.4.5 11.4 1.1zm7.2 49.2c9.7 5.5 9.9 17.9.5 24.9-3.2 2.4-13.7 4-21.1 3.2l-5.8-.7V151h11.3c9.7 0 11.7.3 15.1 2.3z"/></svg>