<?xml version="1.0" standalone="no"?>
<!DOCTYPE svg PUBLIC "-//W3C//DTD SVG 20010904//EN"
 "http://www.w3.org/TR/2001/REC-SVG-20010904/DTD/svg10.dtd">
<svg version="1.0" xmlns="http://www.w3.org/2000/svg"
 width="270.000000pt" height="270.000000pt" viewBox="0 0 270.000000 270.000000"
 preserveAspectRatio="xMidYMid meet">
<metadata>
Created by potrace 1.11, written by Peter Selinger 2001-2013
</metadata>
<g transform="translate(0.000000,270.000000) scale(0.100000,-0.100000)"
fill="#000000" stroke="none">
<path d="M576 1833 c-14 -27 -416 -1126 -416 -1137 0 -4 64 -6 143 -6 l142 0
40 128 40 127 211 3 210 2 40 -127 40 -128 146 -3 147 -3 -18 53 c-92 261
-382 1069 -392 1091 l-12 27 -153 0 -153 0 -15 -27z m248 -492 c31 -96 56
-176 56 -178 0 -2 -65 -3 -145 -3 -80 0 -145 3 -145 6 0 3 29 97 64 207 35
111 68 220 72 242 l7 40 18 -70 c10 -38 43 -148 73 -244z"/>
<path d="M1460 1276 l0 -586 263 0 c351 0 420 15 527 116 67 63 94 128 94 229
0 62 -5 89 -21 121 -40 75 -106 126 -201 155 l-43 12 52 25 c58 28 119 84 145
133 22 44 29 137 14 185 -28 88 -86 137 -198 166 -65 17 -119 21 -354 25
l-278 5 0 -586z m462 383 c62 -17 90 -48 95 -105 6 -63 -13 -104 -64 -135 -30
-19 -55 -24 -130 -27 l-93 -4 0 141 0 141 78 0 c42 0 94 -5 114 -11z m72 -492
c97 -55 99 -179 5 -249 -32 -24 -137 -40 -211 -32 l-58 7 0 148 0 149 113 0
c97 0 117 -3 151 -23z"/>
</g>
</svg>
